<mxfile host="65bd71144e">
    <diagram name="Страница — 1" id="dJPx5ws90rQbGhpq1Rzs">
        <mxGraphModel dx="1007" dy="1760" grid="1" gridSize="10" guides="1" tooltips="1" connect="1" arrows="1" fold="1" page="1" pageScale="1" pageWidth="827" pageHeight="1169" math="0" shadow="0">
            <root>
                <mxCell id="0"/>
                <mxCell id="1" parent="0"/>
                <mxCell id="Rig1Uj0KTghuYHBhiuwI-8" value="" style="edgeStyle=orthogonalEdgeStyle;rounded=0;orthogonalLoop=1;jettySize=auto;html=1;" parent="1" source="Rig1Uj0KTghuYHBhiuwI-1" target="Rig1Uj0KTghuYHBhiuwI-2" edge="1">
                    <mxGeometry relative="1" as="geometry"/>
                </mxCell>
                <mxCell id="Rig1Uj0KTghuYHBhiuwI-1" value="&lt;font style=&quot;font-size: 20px;&quot;&gt;MySQL(DB)&lt;br&gt;CSV files&lt;br&gt;Oracle DB&lt;br&gt;&lt;/font&gt;" style="rounded=0;whiteSpace=wrap;html=1;" parent="1" vertex="1">
                    <mxGeometry x="354" y="-680" width="120" height="90" as="geometry"/>
                </mxCell>
                <mxCell id="Rig1Uj0KTghuYHBhiuwI-11" value="" style="edgeStyle=orthogonalEdgeStyle;rounded=0;orthogonalLoop=1;jettySize=auto;html=1;" parent="1" source="Rig1Uj0KTghuYHBhiuwI-2" target="Rig1Uj0KTghuYHBhiuwI-3" edge="1">
                    <mxGeometry relative="1" as="geometry"/>
                </mxCell>
                <mxCell id="Rig1Uj0KTghuYHBhiuwI-2" value="Нормализация данных&lt;br&gt;Удаление дубликатов&lt;br&gt;Мэппинг" style="rounded=0;whiteSpace=wrap;html=1;fontSize=20;" parent="1" vertex="1">
                    <mxGeometry x="286" y="-510" width="256" height="80" as="geometry"/>
                </mxCell>
                <mxCell id="Rig1Uj0KTghuYHBhiuwI-3" value="Хранилище данных" style="rounded=0;whiteSpace=wrap;html=1;fontSize=20;" parent="1" vertex="1">
                    <mxGeometry x="304" y="-320" width="220" height="120" as="geometry"/>
                </mxCell>
                <mxCell id="Rig1Uj0KTghuYHBhiuwI-9" value="&lt;p style=&quot;&quot;&gt;Задание 1&lt;/p&gt;&lt;p style=&quot;text-align: justify;&quot;&gt;&lt;font style=&quot;font-size: 20px;&quot;&gt;Распределите источники или действия по отношению к одному из трех процессов входящих в состав ETL:&lt;br&gt;&lt;/font&gt;&lt;/p&gt;&lt;ol&gt;&lt;li style=&quot;text-align: left;&quot;&gt;&lt;font style=&quot;font-size: 20px;&quot;&gt;&lt;span style=&quot;letter-spacing: 0.14px;&quot;&gt;MySQL DB&lt;/span&gt;&lt;/font&gt;&lt;/li&gt;&lt;li style=&quot;text-align: left;&quot;&gt;&lt;font style=&quot;font-size: 20px;&quot;&gt;&lt;span style=&quot;letter-spacing: 0.14px;&quot;&gt;Хранилище данных&lt;/span&gt;&lt;/font&gt;&lt;/li&gt;&lt;li style=&quot;text-align: left;&quot;&gt;&lt;font style=&quot;font-size: 20px;&quot;&gt;&lt;span style=&quot;letter-spacing: 0.14px;&quot;&gt;CSV files&lt;/span&gt;&lt;/font&gt;&lt;/li&gt;&lt;li style=&quot;text-align: left;&quot;&gt;&lt;font style=&quot;font-size: 20px;&quot;&gt;&lt;span style=&quot;letter-spacing: 0.14px;&quot;&gt;Удаление дубликатов&lt;/span&gt;&lt;/font&gt;&lt;/li&gt;&lt;li style=&quot;text-align: left;&quot;&gt;&lt;font style=&quot;font-size: 20px;&quot;&gt;&lt;span style=&quot;letter-spacing: 0.14px;&quot;&gt;Нормализация данных&lt;/span&gt;&lt;/font&gt;&lt;/li&gt;&lt;li style=&quot;text-align: left;&quot;&gt;&lt;font style=&quot;font-size: 20px;&quot;&gt;&lt;span style=&quot;letter-spacing: 0.14px;&quot;&gt;Маппинг&lt;/span&gt;&lt;/font&gt;&lt;/li&gt;&lt;li style=&quot;text-align: left;&quot;&gt;&lt;font style=&quot;font-size: 20px;&quot;&gt;&lt;span style=&quot;letter-spacing: 0.14px;&quot;&gt;Oracle DB&lt;/span&gt;&lt;/font&gt;&lt;/li&gt;&lt;/ol&gt;&lt;p&gt;&lt;/p&gt;" style="text;html=1;strokeColor=none;fillColor=none;align=center;verticalAlign=middle;whiteSpace=wrap;rounded=0;fontSize=20;" parent="1" vertex="1">
                    <mxGeometry x="40" y="-1120" width="760" height="340" as="geometry"/>
                </mxCell>
            </root>
        </mxGraphModel>
    </diagram>
</mxfile>